<?xml version="1.0" standalone="no"?>
<!DOCTYPE svg PUBLIC "-//W3C//DTD SVG 20010904//EN"
 "http://www.w3.org/TR/2001/REC-SVG-20010904/DTD/svg10.dtd">
<svg version="1.0" xmlns="http://www.w3.org/2000/svg"
 width="512.000000pt" height="512.000000pt" viewBox="0 0 512.000000 512.000000"
 preserveAspectRatio="xMidYMid meet">
<metadata>
Created by potrace 1.14, written by Peter Selinger 2001-2017
</metadata>
<g transform="translate(0.000000,512.000000) scale(0.100000,-0.100000)"
fill="#000000" stroke="none">
<path d="M3546 4804 c-192 -129 -225 -132 -469 -49 -226 77 -282 89 -417 90
-105 0 -120 -2 -173 -27 -147 -69 -307 -270 -307 -386 0 -79 52 -113 176 -114
117 -1 185 28 428 182 53 34 80 45 123 48 54 5 54 4 99 -43 88 -95 81 -175
-19 -220 -76 -35 -152 -50 -452 -89 -363 -47 -435 -55 -611 -65 -159 -9 -198
-20 -228 -63 -32 -46 -13 -106 58 -187 25 -28 46 -56 46 -62 0 -23 -51 -58
-130 -90 -134 -53 -262 -122 -284 -151 -16 -22 -18 -34 -10 -55 7 -24 39 -43
198 -122 137 -68 203 -96 238 -99 109 -10 207 65 291 226 39 74 63 105 127
164 145 135 336 228 438 214 58 -8 103 -34 121 -71 11 -24 12 -42 2 -107 -14
-89 -5 -118 34 -118 35 0 74 56 85 121 12 77 24 103 69 152 56 60 139 100 218
105 l63 4 45 -45 c40 -39 45 -50 45 -88 0 -25 -7 -55 -16 -68 -9 -12 -61 -51
-115 -86 -54 -35 -105 -76 -115 -90 -16 -24 -16 -27 1 -45 10 -11 40 -27 66
-34 62 -19 83 -30 131 -74 97 -88 104 -198 16 -266 -73 -55 -269 -116 -438
-137 -137 -18 -238 -5 -346 44 -183 83 -411 142 -521 135 -55 -3 -70 -9 -120
-46 -108 -79 -188 -128 -238 -146 -67 -25 -242 -117 -316 -167 -108 -73 -195
-164 -235 -244 l-36 -73 4 -228 c4 -188 8 -238 23 -279 26 -73 52 -105 103
-127 37 -17 57 -19 115 -13 238 23 539 116 682 211 121 80 142 88 225 88 117
1 179 -41 215 -145 22 -60 18 -125 -11 -225 -57 -195 -64 -226 -64 -289 0 -92
21 -143 156 -381 137 -242 163 -300 179 -410 14 -97 38 -142 85 -166 107 -54
227 16 378 220 87 118 153 228 275 458 156 295 169 324 227 489 29 83 69 186
90 230 35 73 46 86 128 152 98 78 146 132 140 159 -3 15 -19 17 -129 18 -124
1 -126 1 -201 38 -85 43 -111 71 -157 172 -16 37 -64 127 -105 199 -41 73 -84
156 -95 185 -42 107 -19 157 61 133 77 -23 150 -111 259 -311 34 -63 80 -138
102 -167 43 -57 118 -113 152 -113 36 0 115 48 203 124 46 39 109 93 140 120
75 64 89 92 73 145 -7 26 -25 50 -47 67 -33 26 -39 27 -177 29 -158 1 -208 13
-240 57 -18 24 -18 30 -7 57 25 62 111 118 215 141 81 18 228 -21 337 -91 70
-45 324 -344 420 -494 102 -159 137 -142 182 90 15 72 38 165 52 209 l26 78
-17 82 c-162 758 -647 1401 -1320 1749 -49 26 -92 47 -95 47 -3 0 -50 -30
-104 -66z"/>
</g>
</svg>
