<?xml version="1.0" encoding="UTF-8"?>
<!-- Generator: Adobe Illustrator 25.0.1, SVG Export Plug-In . SVG Version: 6.00 Build 0)  -->
<svg version="1.1" id="Calque_1" xmlns="http://www.w3.org/2000/svg" xmlns:xlink="http://www.w3.org/1999/xlink" x="0px" y="0px" viewBox="0 0 184 68" style="enable-background:new 0 0 184 68;" xml:space="preserve">
<style type="text/css">
	.st0{fill:#001432;}
	.st1{fill:#3282FF;}
</style>
<path class="st0" d="M135.1,15.25h2.44c1.79,0,2.75,1.04,2.75,2.97c0,1.9-1.01,2.92-2.91,2.92h-0.61v2.63h-1.67V15.25z   M136.77,16.66v3.06h0.57c0.88,0,1.29-0.46,1.29-1.5c0-1.08-0.41-1.56-1.29-1.56H136.77z M141.09,19.51c0-2.97,1.04-4.36,2.92-4.36  c1.88,0,2.91,1.39,2.91,4.36c0,2.97-1.04,4.36-2.91,4.36C142.13,23.87,141.09,22.48,141.09,19.51z M145.21,19.51  c0-2.03-0.38-2.91-1.19-2.91c-0.82,0-1.21,0.88-1.21,2.91c0,2.03,0.39,2.91,1.21,2.91C144.83,22.42,145.21,21.54,145.21,19.51z   M150.89,23.87c-1.72,0-2.64-0.85-2.64-2.75v-5.87h1.66v6.04c0,0.78,0.3,1.13,0.99,1.13c0.67,0,0.99-0.35,0.99-1.13v-6.04h1.66v5.87  C153.53,23.02,152.62,23.87,150.89,23.87z M155.22,15.25h2.69c1.63,0,2.51,0.94,2.51,2.69c0,1.23-0.49,2.05-1.38,2.39l1.71,3.45  h-1.83l-1.46-3.14h-0.57v3.14h-1.67V15.25z M156.89,16.66v2.55h0.87c0.63,0,1.04-0.44,1.04-1.27c0-0.84-0.37-1.28-1.06-1.28H156.89z   M163.59,15.25h1.67v7.08h2.57v1.45h-4.24V15.25z M172.43,22.03h-2.14l-0.39,1.74h-1.56l2.13-8.53h1.88l2.13,8.53h-1.67  L172.43,22.03z M172.11,20.61l-0.76-3.45l-0.77,3.45H172.11z M135.1,29.87h2.45c1.54,0,2.51,0.88,2.51,2.24  c0,0.94-0.39,1.55-1.24,1.88c1.01,0.29,1.47,1,1.47,2.14c0,1.38-0.95,2.27-2.45,2.27h-2.74V29.87z M136.66,31.25v2.13h0.8  c0.73,0,1.04-0.39,1.04-1.06c0-0.68-0.3-1.07-1.04-1.07H136.66z M136.66,34.78V37h0.96c0.68,0,1.05-0.39,1.05-1.11  c0-0.71-0.37-1.12-1.05-1.12H136.66z M144.86,36.65h-2.14l-0.39,1.74h-1.56l2.13-8.53h1.88l2.13,8.53h-1.67L144.86,36.65z   M144.54,35.23l-0.76-3.45l-0.77,3.45H144.54z M147.91,29.87h1.68l2.23,5.54v-5.54h1.51v8.53h-1.68l-2.23-5.54v5.54h-1.51V29.87z   M154.75,34.13c0-2.97,1.04-4.36,2.92-4.36c1.88,0,2.91,1.39,2.91,4.36c0,1.6-0.29,2.73-0.87,3.45l1.01,1.8h-1.58l-0.57-1.01  c-0.27,0.09-0.57,0.12-0.9,0.12C155.78,38.49,154.75,37.1,154.75,34.13z M158,36.98l-0.62-1.08h1.34c0.1-0.45,0.15-1.04,0.15-1.77  c0-2.03-0.38-2.91-1.19-2.91c-0.82,0-1.21,0.88-1.21,2.91s0.39,2.91,1.21,2.91C157.79,37.04,157.89,37.03,158,36.98z M164.54,38.49  c-1.72,0-2.64-0.85-2.64-2.75v-5.87h1.66v6.04c0,0.78,0.3,1.13,0.99,1.13c0.67,0,0.99-0.35,0.99-1.13v-6.04h1.66v5.87  C167.19,37.64,166.27,38.49,164.54,38.49z M168.88,29.87h4.2v1.46h-2.57v1.97h2.24v1.46h-2.24v2.18h2.63v1.45h-4.26V29.87z   M135.1,44.48h4.2v1.46h-2.57v1.97h2.24v1.46h-2.24v2.18h2.63v1.45h-4.26V44.48z M137.32,41.79h1.83l-1.38,1.96h-1.25L137.32,41.79z   M141.73,45.95h-1.78v-1.46h5.24v1.46h-1.8v7.07h-1.66V45.95z M146.23,44.48h1.67v3.42h2.05v-3.42h1.67v8.53h-1.67v-3.64h-2.05v3.64  h-1.67V44.48z M153.42,44.48h1.67v8.53h-1.67V44.48z M156.5,48.75c0-2.97,1.04-4.36,2.92-4.36c1.88,0,2.91,1.39,2.91,4.36  c0,1.6-0.29,2.73-0.87,3.45l1.01,1.8h-1.58l-0.57-1.01c-0.27,0.09-0.57,0.12-0.9,0.12C157.54,53.11,156.5,51.72,156.5,48.75z   M159.76,51.6l-0.62-1.08h1.34c0.1-0.45,0.15-1.04,0.15-1.77c0-2.03-0.38-2.91-1.19-2.91c-0.82,0-1.21,0.88-1.21,2.91  s0.39,2.91,1.21,2.91C159.55,51.66,159.65,51.65,159.76,51.6z M166.3,53.11c-1.72,0-2.64-0.85-2.64-2.75v-5.87h1.66v6.04  c0,0.78,0.3,1.13,0.99,1.13c0.67,0,0.99-0.35,0.99-1.13v-6.04h1.66v5.87C168.94,52.26,168.03,53.11,166.3,53.11z M170.63,44.48h4.2  v1.46h-2.57v1.97h2.24v1.46h-2.24v2.18h2.63v1.45h-4.26V44.48z"/>
<path class="st1" d="M106.95,15.22c-0.53,0-1.02,0.05-1.33,0.35c-0.24,0.23-0.36,0.6-0.36,1.13c0,0.41-0.01,1.44-0.02,2.83  c-0.03,5.14-0.1,14.71,0.02,16.7c0.06,1.15,0.03,5.1,0,8.91c-0.03,3.39-0.06,6.9,0,7.14c0.12,0.42,0.72,0.7,1.49,0.7h3.47  c0.51,0,1.14,0,1.14-1.76c0-0.44-0.01-1.42-0.01-2.7c-0.03-4.36-0.07-11.65,0.01-13.39c0.13-2.6,0.06-12.22,0-13.98  c-0.02-0.53-0.02-1.12-0.02-1.7c0-1.81,0.01-4.06-0.62-4.13c-0.68-0.08-1.5-0.08-2.16-0.09c-0.28,0-0.53,0-0.74-0.01  c-0.14,0-0.29,0-0.44-0.01C107.24,15.22,107.09,15.22,106.95,15.22z"/>
<path class="st1" d="M79.25,15.29c-0.6,0.11-0.65,0.6-0.65,2c0,0.23,0,1.11,0,2.42c-0.01,6.6-0.04,24.12,0,26.04  c0.02,0.98,0.01,2.33,0,3.53c-0.01,1.2-0.03,2.24,0,2.62c0.07,0.87,0.63,1.05,1.45,1.05c0.09,0,0.28,0,0.52,0.01  c0.81,0.01,2.32,0.04,3.08-0.01c1.11-0.07,1.17-0.57,1.17-1.45c0-0.6,0-1.75,0-3.15c0.01-3.89,0.02-9.77,0-10.85  c-0.02-1-0.01-7.32,0-11.09c0-1.13,0-2.01,0-2.39c0-0.46,0.02-1.25,0.04-2.16c0.05-2.17,0.13-5.46-0.03-5.85l-0.01-0.03  c-0.23-0.54-0.29-0.69-1.13-0.69c-0.27,0-0.69-0.01-1.17-0.02C81.36,15.23,79.79,15.19,79.25,15.29L79.25,15.29z"/>
<path class="st0" d="M16.66,28.07c-0.05,0.47-0.3,0.46-0.42,0.46l-0.26,0c-0.54,0-1.98,0-2.2,0c-0.19,0-0.55,0-0.98,0  c-0.29,0-0.6,0-0.92,0c-0.02,0-0.05,0-0.07,0h-1.22c-0.04,0-0.09,0-0.14-0.01c-0.44-0.03-0.49-0.24-0.5-0.46  c-0.01-0.21,0-0.84,0-1.18l0-0.23c0-0.03,0-0.05,0.01-0.08l0.01-1c0.01-1.24,0.02-2.4,0-2.79c-0.04-0.7-0.02-4.07-0.01-5.88  c0-0.49,0.01-0.85,0.01-1c0-0.21,0.05-0.36,0.15-0.46c0.17-0.16,0.44-0.15,0.69-0.15l0.05,0c0.04,0,0.07,0,0.11,0  c0.06,0,0.15,0,0.25,0c0.24,0,0.53,0,0.78,0.03c0.28,0.03,0.3,0.6,0.3,1.54c0,0.2,0,0.41,0.01,0.6c0.02,0.62,0.05,4.01,0,4.93  c-0.03,0.52-0.02,2.22-0.01,3.92l0.29,0c0.28,0,0.51,0.01,0.62,0.01c0.02,0,2.5,0,2.94-0.03c0.46-0.03,0.51,0.15,0.53,0.34  C16.67,26.86,16.71,27.61,16.66,28.07z M28.24,25.38c-0.12-0.43-0.26-0.91-0.4-1.44c-0.4-1.48-1.17-4.47-1.69-6.53  c-0.22-0.86-0.35-1.41-0.37-1.52c-0.06-0.28-0.12-0.48-0.27-0.56l-0.02-0.01c-0.08-0.02-1.01-0.02-1.56-0.02c-0.05,0-0.07,0-0.07,0  c-0.01,0-0.04-0.01-0.35-0.01c-0.21,0-0.84,0.01-0.93,0.03c-0.16,0.06-0.23,0.26-0.29,0.57c-0.02,0.11-0.16,0.66-0.37,1.52  c-0.52,2.06-1.29,5.05-1.69,6.53c-0.15,0.53-0.28,1.02-0.4,1.45c-0.48,1.7-0.67,2.4-0.52,2.65c0.03,0.05,0.07,0.08,0.12,0.09  c0.16,0.04,0.47,0.14,0.7,0.21c0.13,0.04,0.25,0.08,0.28,0.09c0.06,0.01,0.11,0.03,0.18,0.05c0.17,0.05,0.35,0.11,0.52,0.11  c0.09,0,0.18-0.02,0.25-0.06c0.11-0.07,0.18-0.18,0.22-0.35c0.04-0.18,0.23-0.96,0.62-2.45c0.81,0,2.01,0.01,2.42,0  c0.15,0,0.83,0,1.26,0c0.39,1.49,0.58,2.27,0.62,2.45c0.04,0.17,0.11,0.28,0.22,0.35c0.21,0.12,0.5,0.03,0.77-0.04  c0.06-0.02,0.12-0.04,0.18-0.05c0.03-0.01,0.15-0.04,0.29-0.09c0.23-0.07,0.54-0.17,0.7-0.21c0.05-0.01,0.09-0.05,0.12-0.09  C28.91,27.79,28.72,27.09,28.24,25.38z M25.32,23.59c-0.66,0-1.27,0-1.27,0c-0.1,0-0.32,0-0.59-0.01l-0.7-0.01l0.01-0.03  c0.45-1.75,0.88-3.4,0.97-3.76c0.06-0.27,0.17-0.69,0.31-1.24c0.14,0.56,0.25,0.97,0.31,1.24c0.08,0.36,0.51,2.01,0.96,3.75  L25.32,23.59z"/>
<path class="st1" d="M67.43,52.97c0.09,0,0.18,0,0.27,0.01c0.81,0.04,3.15,0.04,3.17,0.04c0.01,0,0.09,0,0.19-0.11  c0.18-0.18,0.48-0.72,0.48-2.3c0-0.8,0-2.45-0.01-4.54c-0.02-6.6-0.05-17.66,0.01-20.34c0.08-3.11,0.03-6.33,0.01-7.88  c-0.01-0.4-0.01-0.69-0.01-0.83c0-0.07,0-0.14,0-0.21c0.01-0.41,0.02-0.93-0.28-1.23c-0.2-0.2-0.55-0.3-1.01-0.28  c-0.86,0.03-1.63-0.02-2.32-0.07c-0.83-0.06-1.49-0.1-1.78,0.05c-0.46,0.24-0.68,0.87-0.67,1.94c0.03,1.19,0.01,4.39-0.01,8.1  c-0.03,5.04-0.06,10.75,0.01,12.66c0.11,2.57,0.08,10.78,0.07,13.48c0,0.44,0,0.75,0,0.88c0,0.16,0.04,0.28,0.14,0.37  c0.27,0.27,0.92,0.26,1.48,0.25C67.26,52.97,67.35,52.97,67.43,52.97z"/>
<path class="st1" d="M39.49,15.24c-0.19,0-0.34,0.05-0.44,0.16c-0.26,0.27-0.26,0.88-0.22,1.51c0.06,1.11,0.11,17.2,0,23.92  c-0.03,1.6-0.06,3.05-0.09,4.33c-0.11,4.37-0.17,7.02,0.37,7.58c0.06,0.07,0.13,0.1,0.21,0.1c0.48,0,1.42,0.05,2.11,0.08  c0.4,0.02,0.75,0.04,0.84,0.04c0.17,0,0.35,0.01,0.54,0.02c0.73,0.03,1.56,0.07,1.97-0.35c0.2-0.2,0.29-0.5,0.28-0.92  c-0.04-0.95-0.02-7.39-0.01-13.63c0.01-5.27,0.03-10.25,0-11.32c-0.05-2.12-0.01-6.77,0-8.3l0-0.68c0.01-1.48,0.01-2.16-0.23-2.4  c-0.11-0.11-0.28-0.15-0.63-0.15c-0.28,0-0.69,0-1.15,0c-1.13-0.01-2.67-0.01-3.53,0l0,0l0,0C39.51,15.24,39.5,15.24,39.49,15.24z"/>
<path class="st0" d="M86.67,47.93l0.12,0c-0.03,0.87-0.01,3.7,0,4.35c0.01,0.42,0.26,0.67,0.67,0.67h4.22  c0.24,0,1.94,0.01,2.44,0.02c1.21,0.03,3.24,0.07,3.53-0.02c0.47-0.14,0.71-0.47,0.71-0.98c0-0.18,0-0.48,0-0.84  c0.01-0.95,0.01-2.39,0-2.92c-0.02-0.66-0.36-0.97-1.07-0.97c-0.22,0-0.67,0-1.22-0.01c-1.62-0.01-5.85-0.03-6.37,0.01  c-0.34,0.02-0.76,0-1.16-0.01c-0.44-0.02-0.86-0.04-1.04,0.01c-0.06,0.01-0.12,0.03-0.17,0.04c-0.31,0.06-0.51,0.1-0.53,0.64  L86.67,47.93z"/>
<path class="st0" d="M87.49,31.27c-0.46,0.1-0.7,0.49-0.7,1.17l0,1.14c0,1.04,0,2.3,0,2.72c0,0.31,0.14,0.67,1.22,0.67l1.55,0  c2.31,0,7.7,0.01,8.13,0c0.37-0.01,0.67-0.45,0.67-0.98l0-0.85c0-1.17,0-2.93,0-3.2c0-0.15-0.04-0.28-0.14-0.38  c-0.19-0.19-0.56-0.29-1.08-0.29c-0.18,0-0.65-0.01-1.27-0.01C93.78,31.24,87.91,31.19,87.49,31.27L87.49,31.27z"/>
<path class="st0" d="M91,20.97c0.6,0,2.93,0.01,3.29,0.02l0.23,0.01c0.85,0.05,3.12,0.17,3.71-0.39c0.09-0.08,0.13-0.18,0.13-0.29  c0-0.22,0-0.6,0-1.05c0.01-1.21,0.01-2.86,0-3.3c-0.02-0.48-0.21-0.68-0.67-0.68c-0.12,0-0.46,0-0.93,0c-1.92,0.01-7.45,0.03-8.08,0  l0,0c-0.8-0.05-1.36,0.07-1.65,0.34c-0.17,0.16-0.25,0.37-0.25,0.64c0,0.35,0,0.87-0.01,1.41c-0.01,1.06-0.01,2.25,0.01,2.63  c0.04,0.61,0.97,0.68,1.37,0.68c0.21,0,0.55,0,0.97-0.01C89.75,20.98,90.28,20.97,91,20.97z"/>
<path class="st0" d="M114.14,31.27c-0.46,0.1-0.7,0.49-0.7,1.17l0,1.14c0,1.04,0,2.3,0,2.72c0,0.31,0.14,0.67,1.22,0.67l1.55,0  c2.31,0,7.7,0.01,8.13,0c0.37-0.01,0.67-0.45,0.67-0.98l0-0.85c0-1.17,0-2.93,0-3.2c0-0.15-0.04-0.28-0.14-0.38  c-0.19-0.19-0.56-0.29-1.08-0.29c-0.18,0-0.65-0.01-1.27-0.01C120.43,31.24,114.56,31.19,114.14,31.27L114.14,31.27z"/>
<path class="st0" d="M118.16,20.97c0.6,0,2.42,0.01,2.78,0.02l0.23,0.01c0.85,0.05,3.12,0.17,3.71-0.39  c0.09-0.08,0.13-0.18,0.13-0.29c0-0.22,0-0.6,0-1.05c0.01-1.21,0.01-2.86,0-3.3c-0.02-0.48-0.21-0.68-0.67-0.68  c-0.12,0-0.46,0-0.93,0c-1.92,0.01-7.45,0.03-8.08,0l0,0c-0.8-0.05-1.36,0.07-1.65,0.34c-0.17,0.16-0.25,0.37-0.25,0.64  c0,0.35,0,0.87-0.01,1.41c-0.01,1.06-0.01,2.25,0.01,2.63c0.04,0.61,0.97,0.68,1.37,0.68c0.21,0,0.55,0,0.97-0.01  C116.4,20.98,117.45,20.97,118.16,20.97z"/>
<path class="st0" d="M63.67,50.83c0,0.95-1.11,0.77-1.36,0.35c-0.19-0.33-0.22-0.39-0.24-0.41c-1.59-2.67-5.42-9.11-7.02-11.6  c-1.19-1.85-4.54-7.51-7.49-12.49c0,0,0-0.01-0.01-0.01c-0.4-0.68-0.62-1.45-0.62-2.23c0-1.1,0-2.15,0.01-3.06c0-1.13,0-2.01,0-2.39  c0-0.46,0.02,0.15,0.04-0.77c0-0.14,0.02-0.28,0-0.42c-0.06-0.79,0.97-1.25,1.37-0.5c0.11,0.21,0.54,0.92,0.61,1.05  c0.93,1.52,1.88,3.08,3.66,6.18c1.35,2.35,6.58,11.06,10.49,17.56c0.33,0.55,0.5,1.17,0.5,1.8c0,2.95,0.01,5.17,0.03,5.79  C63.68,50.25,63.67,49.94,63.67,50.83z"/>
</svg>